<?xml version="1.0" encoding="UTF-8"?>
<svg version="1.1" xmlns="http://www.w3.org/2000/svg" width="176" height="256">
<path d="M0 0 C58.08 0 116.16 0 176 0 C176 84.48 176 168.96 176 256 C117.92 256 59.84 256 0 256 C0 171.52 0 87.04 0 0 Z " fill="#FDFDFD" transform="translate(0,0)"/>
<path d="M0 0 C0.8108606 -0.00043808 1.62172119 -0.00087616 2.45715332 -0.00132751 C5.10312067 0.0007411 7.74843223 0.02397958 10.39428711 0.04760742 C12.24230096 0.05321026 14.09031931 0.0574771 15.93833923 0.06047058 C20.77660663 0.07186525 25.61459917 0.10128555 30.45275879 0.13458252 C35.4000273 0.16539997 40.34734068 0.17900076 45.29467773 0.1940918 C54.98294881 0.22616088 64.67101688 0.27729143 74.35913086 0.34057617 C74.47591204 16.04786448 74.56409319 31.75503567 74.61819172 47.4626503 C74.6439779 54.75592812 74.67913575 62.04893628 74.73632812 69.34204102 C74.78615113 75.6984407 74.81841889 82.0546451 74.82957333 88.41123462 C74.83609419 91.7773854 74.85142696 95.1429775 74.88778114 98.50894928 C74.92394771 102.26599089 74.92908109 106.02186577 74.92675781 109.77905273 C74.94473419 110.89611099 74.96271057 112.01316925 74.98123169 113.16407776 C74.9304593 120.72536967 74.9304593 120.72536967 71.97355652 123.90936279 C71.11079605 124.38166321 70.24803558 124.85396362 69.35913086 125.34057617 C68.56764648 126.15268555 67.77616211 126.96479492 66.96069336 127.80151367 C64.11083776 130.58290427 61.03982417 132.77687512 57.73413086 134.96557617 C53.45006617 137.77246093 53.45006617 137.77246093 49.58569336 141.11401367 C49.18092773 141.5187793 48.77616211 141.92354492 48.35913086 142.34057617 C47.69913086 142.34057617 47.03913086 142.34057617 46.35913086 142.34057617 C46.35913086 143.00057617 46.35913086 143.66057617 46.35913086 144.34057617 C41.60552962 147.13073342 36.78053038 149.67894287 31.83569336 152.11401367 C30.30151513 152.87384327 28.77391705 153.64732393 27.25756836 154.44213867 C22.42688594 156.96333149 17.55821242 158.73133664 12.35913086 160.34057617 C11.30725586 160.73245117 10.25538086 161.12432617 9.17163086 161.52807617 C0.33003478 163.41235075 -8.48428075 163.66782284 -16.46118164 159.01245117 C-20.38048064 156.0062505 -23.00510756 152.48153155 -25.64086914 148.34057617 C-26.14875977 147.63545898 -26.65665039 146.9303418 -27.17993164 146.20385742 C-32.6984557 137.37113595 -32.05521071 125.28225095 -29.87133789 115.38745117 C-28.92759147 111.97342031 -27.85477885 108.66743451 -26.64086914 105.34057617 C-26.29411133 104.37764648 -25.94735352 103.4147168 -25.59008789 102.42260742 C-24.92582572 100.60422179 -24.25290995 98.78896942 -23.57055664 96.97729492 C-22.63650315 94.32819363 -21.90198928 91.68548494 -21.20336914 88.96557617 C-19.82751911 83.72247201 -17.95100842 78.7666428 -15.96508789 73.72729492 C-12.44937086 64.73577083 -9.33563868 55.64343631 -6.63305664 46.37573242 C-5.50191022 42.91549318 -4.1151524 39.6681251 -2.64086914 36.34057617 C-25.89924505 36.04357668 -25.89924505 36.04357668 -45.64086914 46.34057617 C-45.8303796 33.07484397 -39.00227989 21.33352886 -30.18383789 11.75854492 C-28.12691994 9.86826337 -25.76406535 8.64715227 -23.32446289 7.31323242 C-21.53759155 6.34454344 -21.53759155 6.34454344 -19.76586914 4.77807617 C-13.81130344 0.74998761 -7.02149486 -0.10182487 0 0 Z " fill="#3D5B98" transform="translate(101.640869140625,78.659423828125)"/>
<path d="M0 0 C0 9.9 0 19.8 0 30 C-3.96 29.01 -7.92 28.02 -12 27 C-15.36178748 26.70960435 -18.46786771 26.52176148 -21.8125 26.5625 C-22.6590918 26.56572266 -23.50568359 26.56894531 -24.37792969 26.57226562 C-32.34366516 26.7461507 -39.47077271 28.44462589 -47 31 C-46.45472656 31.24234375 -45.90945312 31.4846875 -45.34765625 31.734375 C-43.76308551 32.43862866 -42.17983978 33.14586821 -40.59765625 33.85546875 C-38.88599344 34.60962996 -37.16456461 35.34205802 -35.43359375 36.05078125 C-34.63050781 36.38464844 -33.82742187 36.71851563 -33 37.0625 C-32.2575 37.36285156 -31.515 37.66320313 -30.75 37.97265625 C-29 39 -29 39 -28 42 C-27.34 42 -26.68 42 -26 42 C-26 42.66 -26 43.32 -26 44 C-29.29605835 45.18320043 -32.47327541 46.09645173 -35.91015625 46.796875 C-42.10632015 48.15277855 -48.02266539 50.27744909 -54 52.375 C-55.1240625 52.76171875 -56.248125 53.1484375 -57.40625 53.546875 C-63.75090177 55.75564396 -69.91123807 58.16375169 -76 61 C-76.69077637 61.30631348 -77.38155273 61.61262695 -78.09326172 61.92822266 C-83.36260663 64.27619922 -87.51486483 67.67205252 -91.8984375 71.390625 C-94 73 -94 73 -96 73 C-96.22429687 73.56074219 -96.44859375 74.12148437 -96.6796875 74.69921875 C-98.39312343 77.68505828 -100.54816061 79.53354037 -103.125 81.8125 C-103.61709961 82.25263428 -104.10919922 82.69276855 -104.61621094 83.14624023 C-106.80229081 85.09515107 -109.012419 87.0103993 -111.2578125 88.890625 C-115.48363855 92.43700451 -118.85509931 96.1269157 -122.15234375 100.55078125 C-124.18931578 103.25095347 -126.33441391 105.83952955 -128.5 108.4375 C-137.34599547 119.12725613 -137.34599547 119.12725613 -142.39453125 131.87109375 C-143 134 -143 134 -145 137 C-145.59209443 138.87755638 -145.59209443 138.87755638 -146 140.875 C-146.49946474 143.14934839 -147.06887755 145.16659408 -147.9609375 147.32421875 C-154.70407084 164.68905459 -154.16234013 186.61500394 -148 204 C-147.34 204.99 -146.68 205.98 -146 207 C-145.67 208.175625 -145.34 209.35125 -145 210.5625 C-144.29022994 214.03073325 -144.29022994 214.03073325 -142 216 C-141.7215625 216.76441406 -141.443125 217.52882812 -141.15625 218.31640625 C-137.69814931 226.34247103 -129.27292686 231.90254895 -121.8359375 235.94140625 C-121.23007813 236.29074219 -120.62421875 236.64007813 -120 237 C-120 237.33 -120 237.66 -120 238 C-125.45146802 237.5259593 -129.40816883 236.06973204 -134.125 233.25 C-134.71925781 232.91484375 -135.31351563 232.5796875 -135.92578125 232.234375 C-141.84457786 228.78501009 -145.56275729 224.81687227 -149 219 C-150.11798418 217.61928954 -151.24390476 216.24499035 -152.375 214.875 C-156.23315538 209.96684031 -158.82794691 204.83925232 -161 199 C-161.26184082 198.35844971 -161.52368164 197.71689941 -161.79345703 197.0559082 C-164.58939684 189.30865235 -164.45582246 181.59829253 -164.39111328 173.46899414 C-164.37505387 171.07054566 -164.39101423 168.6737875 -164.41015625 166.27539062 C-164.42224096 157.75236265 -163.96569032 150.09730398 -161 142 C-160.58878906 140.87207031 -160.17757812 139.74414062 -159.75390625 138.58203125 C-159.36074219 137.66808594 -158.96757812 136.75414062 -158.5625 135.8125 C-157.92634766 134.32363281 -157.92634766 134.32363281 -157.27734375 132.8046875 C-156.1360256 130.29867394 -154.91274318 127.87039889 -153.625 125.4375 C-151.57435551 122.12469906 -151.57435551 122.12469906 -153 119 C-152.29296875 116.37109375 -152.29296875 116.37109375 -151.1875 113.4375 C-150.83042969 112.46683594 -150.47335938 111.49617188 -150.10546875 110.49609375 C-149 108 -149 108 -147 106 C-146.731875 105.175 -146.46375 104.35 -146.1875 103.5 C-143.05101261 94.2556161 -138.0569613 84.8381408 -131 78 C-129.96991393 76.84149471 -128.94985393 75.67403208 -127.9375 74.5 C-126.62578717 72.99931159 -125.31319366 71.49939276 -124 70 C-123.1853125 69.06671875 -122.370625 68.1334375 -121.53125 67.171875 C-120.6753125 66.20765625 -119.819375 65.2434375 -118.9375 64.25 C-118.14214844 63.34765625 -117.34679687 62.4453125 -116.52734375 61.515625 C-113.88256798 58.88311249 -111.13329335 57.00962953 -108 55 C-107.2575 54.236875 -106.515 53.47375 -105.75 52.6875 C-101.387474 48.42412232 -96.26854543 44.57458623 -90.75390625 41.91796875 C-88.8173639 41.12228749 -88.8173639 41.12228749 -88 39 C-94.27 38.67 -100.54 38.34 -107 38 C-103.30477669 33.38097086 -101.98323935 32.32551169 -97 30 C-96.67 29.34 -96.34 28.68 -96 28 C-95.34 28 -94.68 28 -94 28 C-94 27.34 -94 26.68 -94 26 C-93.01 26 -92.02 26 -91 26 C-91 25.34 -91 24.68 -91 24 C-89.02 23.67 -87.04 23.34 -85 23 C-85 22.34 -85 21.68 -85 21 C-84.04738281 20.52949219 -83.09476562 20.05898438 -82.11328125 19.57421875 C-80.84630039 18.94542084 -79.57937631 18.31650852 -78.3125 17.6875 C-77.37374023 17.2244043 -77.37374023 17.2244043 -76.41601562 16.75195312 C-73.66561282 15.38395173 -70.97749532 13.98632459 -68.3515625 12.390625 C-48.13371449 0.43455541 -22.67769473 -0.38876048 0 0 Z " fill="#14C781" transform="translate(176,4)"/>
<path d="M0 0 C0.3244431 6.02773041 0.55859643 12.05026009 0.71411133 18.0847168 C0.77899432 20.13086549 0.8673473 22.17642314 0.98071289 24.22045898 C1.94488423 42.06853561 1.94488423 42.06853561 -2.72753906 48.15307617 C-5.83820839 51.53049856 -9.29522482 54.30711796 -13 57 C-14.14514159 57.88710465 -15.28788953 58.77730959 -16.42797852 59.67089844 C-18.38500402 61.17607819 -20.36773305 62.64844164 -22.375 64.0859375 C-24.52584546 65.65426231 -26.43651961 67.25002084 -28.375 69.0625 C-33.09564442 73.22913236 -38.82691654 76.01393831 -44.30908203 79.04492188 C-46.66680756 80.3766317 -48.95466265 81.81405436 -51.25 83.25 C-56.60003303 86.48654891 -62.63092758 90 -69 90 C-68.42911651 85.75287775 -67.41322719 82.22877872 -65.6875 78.3125 C-62.30706727 70.4410601 -59.44625914 62.43346028 -56.77734375 54.296875 C-55.91958666 51.76239676 -54.9940379 49.25826548 -54.0625 46.75 C-52.63504723 42.86475262 -51.36570936 38.9676452 -50.1875 35 C-47.37000447 25.65718484 -44.37503196 15.75006393 -40 7 C-39.25427734 6.98018066 -38.50855469 6.96036133 -37.74023438 6.93994141 C-34.32649812 6.84405589 -30.91332121 6.73463559 -27.5 6.625 C-26.32695312 6.5940625 -25.15390625 6.563125 -23.9453125 6.53125 C-17.66500472 6.31955423 -12.01939087 5.83263633 -6 4 C-6 3.34 -6 2.68 -6 2 C-2.25 0 -2.25 0 0 0 Z " fill="#FBFCFD" transform="translate(176,108)"/>
<path d="M0 0 C0.12673206 6.76249187 0.21432235 13.52467783 0.2746582 20.28808594 C0.29980906 22.5889836 0.33393396 24.88980132 0.37719727 27.19042969 C0.43782147 30.49694533 0.46620441 33.80240521 0.48828125 37.109375 C0.51408768 38.13867126 0.5398941 39.16796753 0.56648254 40.22845459 C0.56930005 47.39572808 0.56930005 47.39572808 -2.38061523 50.52685547 C-3.67721069 51.25606201 -3.67721069 51.25606201 -5 52 C-5.79148437 52.81210938 -6.58296875 53.62421875 -7.3984375 54.4609375 C-10.24829309 57.2423281 -13.31930669 59.43629895 -16.625 61.625 C-20.90906469 64.43188476 -20.90906469 64.43188476 -24.7734375 67.7734375 C-25.17820313 68.17820312 -25.58296875 68.58296875 -26 69 C-26.66 69 -27.32 69 -28 69 C-28 69.66 -28 70.32 -28 71 C-32.77762473 73.80425799 -37.61237178 76.41343155 -42.60546875 78.81640625 C-45.19703521 80.05566824 -45.19703521 80.05566824 -48.3125 82 C-54.24676341 83.60929177 -59.38236625 82.32891852 -65 80 C-69.10402934 76.77928823 -72.1539454 73.23976994 -73 68 C-73.57808812 59.79559554 -72.9198931 52.69948003 -70 45 C-69.195625 44.9175 -68.39125 44.835 -67.5625 44.75 C-51.41499232 41.3505247 -32.88772935 29.13434948 -21.00390625 17.859375 C-18.92960963 15.93468652 -16.76527521 14.25659947 -14.5 12.5625 C-10.20448054 9.2954852 -6.48662888 5.6084908 -2.75 1.72265625 C-1 0 -1 0 0 0 Z " fill="#1786B4" transform="translate(176,152)"/>
<path d="M0 0 C0.99 0.495 0.99 0.495 2 1 C-3.75 6 -3.75 6 -6 6 C-6.22429687 6.56074219 -6.44859375 7.12148437 -6.6796875 7.69921875 C-8.39312343 10.68505828 -10.54816061 12.53354037 -13.125 14.8125 C-13.61709961 15.25263428 -14.10919922 15.69276855 -14.61621094 16.14624023 C-16.80229081 18.09515107 -19.012419 20.0103993 -21.2578125 21.890625 C-25.48363855 25.43700451 -28.85509931 29.1269157 -32.15234375 33.55078125 C-34.18931578 36.25095347 -36.33441391 38.83952955 -38.5 41.4375 C-47.34599547 52.12725613 -47.34599547 52.12725613 -52.39453125 64.87109375 C-53 67 -53 67 -55 70 C-55.59209443 71.87755638 -55.59209443 71.87755638 -56 73.875 C-56.49946474 76.14934839 -57.06887755 78.16659408 -57.9609375 80.32421875 C-64.70407084 97.68905459 -64.16234013 119.61500394 -58 137 C-57.34 137.99 -56.68 138.98 -56 140 C-55.67 141.175625 -55.34 142.35125 -55 143.5625 C-54.29022994 147.03073325 -54.29022994 147.03073325 -52 149 C-51.7215625 149.76441406 -51.443125 150.52882812 -51.15625 151.31640625 C-47.69814931 159.34247103 -39.27292686 164.90254895 -31.8359375 168.94140625 C-31.23007812 169.29074219 -30.62421875 169.64007813 -30 170 C-30 170.33 -30 170.66 -30 171 C-35.45146802 170.5259593 -39.40816883 169.06973204 -44.125 166.25 C-44.71925781 165.91484375 -45.31351563 165.5796875 -45.92578125 165.234375 C-51.84457786 161.78501009 -55.56275729 157.81687227 -59 152 C-60.11798418 150.61928954 -61.24390476 149.24499035 -62.375 147.875 C-66.23315538 142.96684031 -68.82794691 137.83925232 -71 132 C-71.26184082 131.35844971 -71.52368164 130.71689941 -71.79345703 130.0559082 C-74.58939684 122.30865235 -74.45582246 114.59829253 -74.39111328 106.46899414 C-74.37505387 104.07054566 -74.39101423 101.6737875 -74.41015625 99.27539062 C-74.42213344 90.75011698 -73.95859305 83.10172864 -71 75 C-70.61199219 73.91847656 -70.22398438 72.83695312 -69.82421875 71.72265625 C-61.44297916 52.10882753 -61.44297916 52.10882753 -57 48 C-56.566875 47.278125 -56.13375 46.55625 -55.6875 45.8125 C-49.50906738 35.51511231 -41.01851468 26.65129606 -31 20 C-30.34 20 -29.68 20 -29 20 C-29 19.34 -29 18.68 -29 18 C-26.82423318 16.36055665 -24.65642175 14.85520982 -22.375 13.375 C-21.70509033 12.93567139 -21.03518066 12.49634277 -20.3449707 12.04370117 C-6.73162189 3.20691 -6.73162189 3.20691 0 0 Z " fill="#A7CA45" transform="translate(86,71)"/>
<path d="M0 0 C0.66 0 1.32 0 2 0 C1.67 1.65 1.34 3.3 1 5 C1.66 5.33 2.32 5.66 3 6 C2.54109375 6.85980469 2.0821875 7.71960938 1.609375 8.60546875 C-2.55842363 16.57776023 -5.66753899 24.27862406 -8 33 C-8.33 33 -8.66 33 -9 33 C-9.73157242 25.13559646 -7.36454487 16.5468173 -3 10 C-2.29508733 7.67793475 -1.62787571 5.34406932 -1 3 C-0.67 2.01 -0.34 1.02 0 0 Z " fill="#9EF0DA" transform="translate(22,120)"/>
<path d="M0 0 C0.66 0.33 1.32 0.66 2 1 C1.50628906 1.55429688 1.01257812 2.10859375 0.50390625 2.6796875 C-0.13675781 3.40414062 -0.77742188 4.12859375 -1.4375 4.875 C-2.07558594 5.59429687 -2.71367188 6.31359375 -3.37109375 7.0546875 C-5.05014465 8.90750491 -5.05014465 8.90750491 -6 11 C-6.66 11 -7.32 11 -8 11 C-7.67 8.03 -7.34 5.06 -7 2 C-6.34 2.66 -5.68 3.32 -5 4 C-3.35 2.68 -1.7 1.36 0 0 Z " fill="#CED0E2" transform="translate(62,119)"/>
<path d="M0 0 C0.33 0.99 0.66 1.98 1 3 C0.278125 3.556875 -0.44375 4.11375 -1.1875 4.6875 C-3.97457299 6.97909334 -6.48641528 9.41459857 -9 12 C-9.66 11.34 -10.32 10.68 -11 10 C-9.90536178 8.82438854 -8.79892814 7.6597511 -7.6875 6.5 C-7.07261719 5.8503125 -6.45773438 5.200625 -5.82421875 4.53125 C-4 3 -4 3 -1 3 C-0.67 2.01 -0.34 1.02 0 0 Z " fill="#1C8DC3" transform="translate(175,197)"/>
<path d="M0 0 C0.66 0.33 1.32 0.66 2 1 C-2.39453125 5.00390625 -2.39453125 5.00390625 -4 6 C-4.99 5.67 -5.98 5.34 -7 5 C-4.88437775 2.67281553 -2.94982021 1.14186589 0 0 Z " fill="#6AB752" transform="translate(86,71)"/>
<path d="M0 0 C1.98 0 3.96 0 6 0 C6 0.99 6 1.98 6 3 C4.02 3 2.04 3 0 3 C0 2.01 0 1.02 0 0 Z " fill="#2AB67F" transform="translate(170,240)"/>
<path d="M0 0 C3.79588866 0.54226981 5.47211993 2.20127563 8 5 C5.03 4.01 2.06 3.02 -1 2 C-0.67 1.34 -0.34 0.68 0 0 Z " fill="#C5EADE" transform="translate(129,34)"/>
</svg>
